<?xml version="1.0" standalone="no"?>
<!DOCTYPE svg PUBLIC "-//W3C//DTD SVG 20010904//EN"
 "http://www.w3.org/TR/2001/REC-SVG-20010904/DTD/svg10.dtd">
<svg version="1.0" xmlns="http://www.w3.org/2000/svg"
 width="500.000000pt" height="500.000000pt" viewBox="0 0 500.000000 500.000000"
 preserveAspectRatio="xMidYMid meet">
<metadata>
Created by potrace 1.14, written by Peter Selinger 2001-2017
</metadata>
<g transform="translate(0.000000,500.000000) scale(0.100000,-0.100000)"
fill="#000000" stroke="none">
<path d="M2360 3404 c-534 -35 -968 -182 -1247 -422 -66 -57 -153 -161 -176
-209 -14 -32 38 -115 134 -212 223 -225 601 -383 1069 -447 88 -12 194 -17
360 -17 254 0 392 13 600 59 151 33 357 102 474 158 196 94 388 251 465 380
39 66 39 67 -34 164 -196 261 -645 465 -1157 526 -127 16 -392 26 -488 20z"/>
<path d="M890 2648 c-21 -59 -24 -196 -6 -268 31 -120 82 -206 181 -306 107
-108 205 -176 369 -255 191 -92 405 -154 673 -196 153 -24 633 -24 786 0 268
42 482 104 673 196 164 79 262 147 369 255 99 100 150 186 181 306 19 75 15
214 -7 269 l-14 33 -37 -53 c-142 -205 -480 -403 -855 -500 -599 -154 -1293
-100 -1791 141 -210 101 -384 234 -469 358 -20 28 -37 52 -39 52 -1 0 -7 -15
-14 -32z"/>
<path d="M889 2142 c-8 -27 -14 -93 -14 -157 0 -96 3 -118 27 -173 85 -202
249 -358 513 -488 217 -107 490 -182 775 -215 135 -16 485 -16 620 0 484 56
908 230 1135 467 67 70 115 143 153 236 34 85 42 222 17 314 l-17 63 -42 -57
c-186 -250 -558 -446 -1021 -536 -312 -61 -758 -61 -1070 0 -463 90 -835 286
-1020 536 l-43 57 -13 -47z"/>
</g>
</svg>
